<svg width="111" height="40" viewBox="0 0 111 40" fill="none" xmlns="http://www.w3.org/2000/svg">
<path d="M12.2656 15.5C14.5312 15.7865 16.3281 16.7109 17.6562 18.2734C18.9844 19.8359 19.6484 21.7891 19.6484 24.1328C19.6484 25.9818 19.2318 27.6224 18.3984 29.0547C17.5911 30.4609 16.4323 31.5547 14.9219 32.3359C13.4115 33.1172 11.6536 33.5078 9.64844 33.5078C8.08594 33.5078 6.52344 33.2865 4.96094 32.8438C3.39844 32.375 2.08333 31.763 1.01562 31.0078L2.77344 27.1797C3.91927 27.8307 5.09115 28.3385 6.28906 28.7031C7.48698 29.0417 8.60677 29.2109 9.64844 29.2109C11.3151 29.2109 12.6042 28.7682 13.5156 27.8828C14.4271 26.9974 14.8828 25.7474 14.8828 24.1328C14.8828 22.6224 14.4401 21.4375 13.5547 20.5781C12.6953 19.7188 11.4974 19.2891 9.96094 19.2891C9.15365 19.2891 8.30729 19.3932 7.42188 19.6016L5.625 17.2969L13.6719 8.78125H1.67969V4.71875H18.75V8.78125L12.2656 15.5ZM40.7812 4.71875V33H36.1328V9.52344L29.9609 11.6719L28.6328 7.84375L36.7578 4.71875H40.7812ZM56.7578 4.21094C58.6849 4.21094 60.3646 4.61458 61.7969 5.42188C63.2552 6.22917 64.375 7.375 65.1562 8.85938C65.9635 10.3438 66.3672 12.0625 66.3672 14.0156C66.3672 16.2031 65.9635 18.2474 65.1562 20.1484C64.349 22.0234 62.9557 24.1589 60.9766 26.5547L55.1953 33.5078L51.5625 30.6953L57.3828 24.0547C58.0599 23.2734 58.5547 22.6875 58.8672 22.2969C57.9036 22.6094 56.862 22.7656 55.7422 22.7656C54.0755 22.7656 52.6042 22.388 51.3281 21.6328C50.0521 20.8776 49.0625 19.8229 48.3594 18.4688C47.6823 17.0885 47.3438 15.5 47.3438 13.7031C47.3438 11.8281 47.7344 10.1745 48.5156 8.74219C49.2969 7.28385 50.3906 6.16406 51.7969 5.38281C53.2292 4.60156 54.8828 4.21094 56.7578 4.21094ZM52.0703 13.5859C52.0703 15.3047 52.513 16.6458 53.3984 17.6094C54.2839 18.5729 55.5078 19.0547 57.0703 19.0547C58.3464 19.0547 59.5964 18.7682 60.8203 18.1953C61.3932 16.9714 61.6797 15.5911 61.6797 14.0547C61.6797 12.2318 61.237 10.8125 60.3516 9.79688C59.4922 8.78125 58.2943 8.27344 56.7578 8.27344C55.2995 8.27344 54.1536 8.74219 53.3203 9.67969C52.487 10.6172 52.0703 11.9193 52.0703 13.5859ZM78.9844 4.21094C80.9115 4.21094 82.5911 4.61458 84.0234 5.42188C85.4818 6.22917 86.6016 7.375 87.3828 8.85938C88.1901 10.3438 88.5938 12.0625 88.5938 14.0156C88.5938 16.2031 88.1901 18.2474 87.3828 20.1484C86.5755 22.0234 85.1823 24.1589 83.2031 26.5547L77.4219 33.5078L73.7891 30.6953L79.6094 24.0547C80.2865 23.2734 80.7812 22.6875 81.0938 22.2969C80.1302 22.6094 79.0885 22.7656 77.9688 22.7656C76.3021 22.7656 74.8307 22.388 73.5547 21.6328C72.2786 20.8776 71.2891 19.8229 70.5859 18.4688C69.9089 17.0885 69.5703 15.5 69.5703 13.7031C69.5703 11.8281 69.9609 10.1745 70.7422 8.74219C71.5234 7.28385 72.6172 6.16406 74.0234 5.38281C75.4557 4.60156 77.1094 4.21094 78.9844 4.21094ZM74.2969 13.5859C74.2969 15.3047 74.7396 16.6458 75.625 17.6094C76.5104 18.5729 77.7344 19.0547 79.2969 19.0547C80.5729 19.0547 81.8229 18.7682 83.0469 18.1953C83.6198 16.9714 83.9062 15.5911 83.9062 14.0547C83.9062 12.2318 83.4635 10.8125 82.5781 9.79688C81.7188 8.78125 80.5208 8.27344 78.9844 8.27344C77.526 8.27344 76.3802 8.74219 75.5469 9.67969C74.7135 10.6172 74.2969 11.9193 74.2969 13.5859Z" fill="black"/>
<path d="M98.1621 17.6777C97.0046 17.6777 96.1387 17.263 95.5645 16.4336C94.9993 15.6042 94.7168 14.3099 94.7168 12.5508C94.7168 10.7826 94.9993 9.48828 95.5645 8.66797C96.1296 7.83854 96.9909 7.42383 98.1484 7.42383C99.3151 7.42383 100.181 7.83854 100.746 8.66797C101.32 9.48828 101.607 10.7826 101.607 12.5508C101.607 14.3099 101.32 15.6042 100.746 16.4336C100.181 17.263 99.3197 17.6777 98.1621 17.6777ZM98.1621 16.2285C98.7819 16.2285 99.2331 15.9368 99.5156 15.3535C99.7982 14.7611 99.9395 13.8268 99.9395 12.5508C99.9395 11.2747 99.7936 10.3451 99.502 9.76172C99.2194 9.16927 98.7682 8.87305 98.1484 8.87305C97.5378 8.87305 97.0911 9.16927 96.8086 9.76172C96.526 10.3451 96.3848 11.2747 96.3848 12.5508C96.3848 13.8268 96.526 14.7611 96.8086 15.3535C97.0911 15.9368 97.5423 16.2285 98.1621 16.2285ZM106.721 17.6777C105.563 17.6777 104.697 17.263 104.123 16.4336C103.558 15.6042 103.275 14.3099 103.275 12.5508C103.275 10.7826 103.558 9.48828 104.123 8.66797C104.688 7.83854 105.549 7.42383 106.707 7.42383C107.874 7.42383 108.74 7.83854 109.305 8.66797C109.879 9.48828 110.166 10.7826 110.166 12.5508C110.166 14.3099 109.879 15.6042 109.305 16.4336C108.74 17.263 107.878 17.6777 106.721 17.6777ZM106.721 16.2285C107.34 16.2285 107.792 15.9368 108.074 15.3535C108.357 14.7611 108.498 13.8268 108.498 12.5508C108.498 11.2747 108.352 10.3451 108.061 9.76172C107.778 9.16927 107.327 8.87305 106.707 8.87305C106.096 8.87305 105.65 9.16927 105.367 9.76172C105.085 10.3451 104.943 11.2747 104.943 12.5508C104.943 13.8268 105.085 14.7611 105.367 15.3535C105.65 15.9368 106.101 16.2285 106.721 16.2285ZM105.668 32.1328V33.5H100.172V32.1328L103.781 27.4434H100.295V26.0762H105.6V27.4434L101.977 32.1328H105.668ZM109.113 28.209V31.4082C109.113 31.6634 109.168 31.8503 109.277 31.9688C109.387 32.0872 109.56 32.1465 109.797 32.1465C109.934 32.1465 110.102 32.1328 110.303 32.1055L110.412 33.4727C110.084 33.5547 109.738 33.5957 109.373 33.5957C108.124 33.5957 107.5 32.9668 107.5 31.709V29.207L106.557 29.8223H106.42V28.5234L107.5 27.8672V22.9727H109.113V26.8691L110.344 26.0762H110.48V27.375L109.113 28.209Z" fill="black"/>
</svg>
